<?xml version="1.0" standalone="no"?>
<!DOCTYPE svg PUBLIC "-//W3C//DTD SVG 20010904//EN"
 "http://www.w3.org/TR/2001/REC-SVG-20010904/DTD/svg10.dtd">
<svg version="1.0" xmlns="http://www.w3.org/2000/svg"
 width="4688.000000pt" height="4688.000000pt" viewBox="0 0 4688.000000 4688.000000"
 preserveAspectRatio="xMidYMid meet">

<g transform="translate(0.000000,4688.000000) scale(0.100000,-0.100000)"
fill="#000000" stroke="none">
<path d="M3179 31330 c-495 -59 -875 -206 -1154 -447 -156 -135 -271 -294
-396 -548 -86 -176 -128 -284 -188 -486 -178 -591 -229 -1465 -125 -2124 107
-675 469 -1331 1163 -2105 47 -52 331 -342 631 -645 300 -302 580 -588 621
-635 242 -272 451 -574 593 -857 128 -256 214 -499 265 -750 53 -261 56 -301
55 -813 -1 -833 -32 -1188 -124 -1427 -71 -185 -181 -317 -321 -386 -226 -111
-608 -138 -826 -59 -422 154 -582 603 -633 1782 -5 124 -10 584 -10 1023 l0
797 -701 0 -700 0 4 -957 c4 -993 6 -1058 52 -1463 90 -790 277 -1361 570
-1735 68 -87 207 -227 298 -300 269 -216 645 -359 1083 -410 175 -20 581 -20
768 1 413 46 742 154 1011 331 140 93 319 273 414 418 286 435 468 1104 520
1915 55 845 -11 1458 -225 2099 -213 639 -595 1283 -1089 1836 -91 103 -772
827 -1269 1350 -305 321 -505 576 -629 805 -75 137 -131 350 -163 620 -22 179
-24 636 -5 815 69 654 282 1001 675 1104 310 81 628 28 789 -133 160 -160 276
-481 321 -891 34 -304 38 -430 43 -1207 l5 -798 695 0 696 0 -6 638 c-6 640
-14 846 -42 1197 -82 996 -269 1532 -670 1930 -138 137 -262 226 -430 309
-224 112 -456 176 -755 210 -191 22 -605 20 -811 -4z"/>
<path d="M29289 31330 c-589 -72 -1065 -303 -1367 -666 -425 -508 -639 -1281
-682 -2454 -13 -354 -13 -5696 0 -6112 31 -1011 170 -1730 440 -2268 299 -596
793 -930 1530 -1036 154 -22 581 -30 765 -15 815 69 1359 402 1672 1025 276
550 414 1270 443 2326 12 451 12 5696 0 6075 -21 619 -76 1077 -180 1491 -127
506 -288 816 -569 1094 -293 290 -633 449 -1141 532 -187 30 -692 35 -911 8z
m631 -1240 c179 -37 347 -143 439 -279 147 -216 226 -560 273 -1181 19 -255
19 -6679 0 -6980 -64 -1014 -197 -1384 -557 -1556 -105 -51 -212 -75 -355 -81
-154 -7 -269 7 -382 45 -121 40 -189 83 -283 177 -65 64 -91 100 -132 180
-119 233 -182 569 -225 1210 -19 281 -19 6729 0 6960 83 1004 298 1409 802
1510 102 21 308 18 420 -5z"/>
<path d="M8936 31168 c-3 -18 -50 -330 -105 -693 -107 -706 -757 -4992 -1476
-9725 -151 -999 -275 -1821 -275 -1828 0 -9 155 -12 685 -12 l685 0 5 23 c2
12 66 470 140 1017 75 547 145 1064 157 1148 l21 152 1113 0 1114 0 5 -22 c4
-19 345 -2304 345 -2315 0 -2 306 -3 680 -3 390 0 680 4 680 9 0 5 -121 742
-269 1637 -149 896 -513 3103 -811 4904 -892 5395 -940 5684 -946 5713 l-6 27
-868 0 -868 0 -6 -32z m914 -2243 c0 -3 372 -2498 631 -4225 183 -1225 339
-2271 339 -2275 0 -3 -423 -5 -940 -5 l-940 0 0 26 c0 14 176 1302 390 2862
215 1560 413 3001 440 3202 57 412 58 420 71 420 5 0 9 -2 9 -5z"/>
<path d="M14170 25055 l0 -6145 1268 0 c1073 0 1288 2 1402 15 813 93 1332
404 1663 1000 211 379 358 935 421 1595 41 428 41 395 38 3530 -2 1785 -7
3101 -13 3225 -35 755 -167 1356 -404 1840 -308 630 -772 943 -1565 1058 -140
20 -189 21 -1477 24 l-1333 4 0 -6146z m2270 4995 c697 -51 1004 -546 1070
-1720 13 -245 13 -6284 0 -6535 -31 -563 -107 -948 -245 -1230 -124 -253 -278
-382 -535 -449 -146 -37 -280 -46 -717 -46 l-403 0 0 4988 c0 2744 3 4992 7
4995 10 11 672 8 823 -3z"/>
<path d="M22130 31191 c0 -7 -139 -923 -961 -6341 -143 -943 -401 -2646 -574
-3785 -173 -1138 -317 -2089 -321 -2113 l-7 -42 689 2 689 3 159 1168 160
1167 1116 -2 1115 -3 17 -115 c162 -1083 328 -2204 328 -2211 0 -5 294 -9 680
-9 565 0 680 2 680 14 0 7 -115 708 -255 1557 -141 849 -287 1733 -325 1964
-38 231 -182 1102 -320 1935 -138 833 -401 2429 -586 3545 -184 1117 -382
2309 -438 2650 l-103 620 -871 3 c-488 1 -872 -2 -872 -7z m914 -2288 c3 -16
39 -255 81 -533 75 -506 267 -1792 669 -4487 119 -793 216 -1447 216 -1452 0
-8 -283 -11 -940 -11 -930 0 -940 0 -940 20 0 11 169 1247 375 2747 207 1501
405 2940 440 3198 77 559 75 545 85 545 5 0 11 -12 14 -27z"/>
<path d="M33970 25055 l0 -6145 720 0 720 0 0 2965 0 2965 33 0 c72 0 969 -50
1067 -60 224 -22 433 -100 546 -203 131 -119 207 -409 244 -932 6 -86 15 -764
20 -1590 12 -1957 34 -2739 85 -3048 8 -48 15 -89 15 -92 0 -3 324 -5 721 -5
l721 0 -7 28 c-46 180 -75 541 -90 1092 -3 124 -10 680 -16 1235 -10 1142 -22
1506 -65 2035 -65 808 -196 1350 -400 1660 -135 205 -330 345 -564 404 -83 21
-92 25 -70 34 14 5 52 19 85 31 229 85 451 259 594 465 144 208 264 540 336
931 74 398 94 797 77 1535 -13 538 -21 701 -47 945 -71 644 -253 1121 -539
1409 -275 277 -690 432 -1271 475 -87 7 -662 11 -1527 11 l-1388 0 0 -6145z
m2455 4995 c293 -21 506 -95 638 -224 129 -125 200 -429 238 -1016 15 -233 15
-1153 0 -1435 -32 -589 -89 -895 -209 -1130 -52 -100 -155 -202 -252 -248
-174 -82 -316 -96 -981 -97 -389 0 -438 2 -443 16 -8 21 -8 4072 0 4113 l7 31
431 0 c237 0 494 -5 571 -10z"/>
<path d="M41945 31178 c-2 -13 -266 -1746 -585 -3853 -606 -3995 -1013 -6682
-1179 -7770 l-97 -640 685 -3 c376 -1 686 -1 688 1 2 2 73 514 158 1138 85
624 157 1149 160 1167 l6 32 1114 0 1114 0 6 -32 c3 -18 80 -535 170 -1148 91
-613 168 -1125 170 -1137 l5 -23 681 0 681 0 -6 28 c-3 15 -74 439 -157 942
-142 863 -198 1203 -468 2835 -105 630 -636 3843 -1165 7047 -130 784 -236
1429 -236 1432 0 3 -391 6 -870 6 l-870 0 -5 -22z m1235 -4418 c177 -1185 395
-2643 485 -3240 89 -597 160 -1088 158 -1092 -2 -5 -424 -8 -938 -8 -514 0
-936 3 -938 8 -5 7 880 6463 889 6491 3 9 8 11 14 5 4 -5 153 -979 330 -2164z"/>
</g>
</svg>
